<svg width="66" height="66" viewBox="0 0 66 66" fill="none" xmlns="http://www.w3.org/2000/svg">
<rect width="66" height="66" rx="33" fill="#212121"/>
<g clip-path="url(#clip0_1_181)">
<path d="M20.4322 44.131C20.3598 43.7872 20.2994 43.4571 20.2236 43.1219C19.6407 40.5433 19.4854 37.9183 19.2267 35.3019V35.1299C19.2457 34.6624 18.8818 34.8377 18.6766 34.836C15.6603 34.8257 12.6406 34.836 9.62604 34.8171C9.06038 34.8171 8.96552 34.989 9.01554 35.5185C9.42344 39.9576 11.0111 44.2081 13.615 47.8322C13.8323 48.1399 13.9737 48.2396 14.3566 48.0127C15.988 47.0431 17.747 46.3521 19.5475 45.7607C20.7064 45.3791 20.703 45.3722 20.4322 44.131ZM9.35354 35.2726C9.35241 35.2753 9.35186 35.2783 9.35186 35.2812C9.35186 35.2842 9.35241 35.2871 9.35354 35.2898C9.4208 35.3878 9.24317 35.3104 9.35354 35.2726Z" fill="#A854EE"/>
<path d="M45.3954 21.2828C45.6334 22.1011 45.7662 22.9503 45.9455 23.7858C46.4405 26.11 46.5387 28.4806 46.7922 30.834C46.7922 30.8907 46.7922 30.9475 46.7922 31.0059C46.7526 31.4013 47.051 31.3033 47.2528 31.3033C50.3455 31.3033 53.4382 31.3033 56.5309 31.3033C56.7206 31.3033 57.0483 31.4236 56.9828 31.0093C56.9966 30.5125 57.0379 30.0123 56.8189 29.5412C56.3671 25.3553 54.7494 21.6335 52.335 18.2125C52.1453 17.9426 52.0039 17.9358 51.7125 18.106C49.8464 19.1633 47.8607 19.9955 45.7972 20.5849C45.4109 20.6966 45.2609 20.8152 45.3954 21.2828Z" fill="#A854EE"/>
<path d="M30.5692 22.3142C28.5921 22.264 26.6232 22.0414 24.685 21.6489C24.1124 21.5338 23.9952 21.7435 23.8865 22.1887C23.2492 24.9729 22.8546 27.8067 22.7069 30.6586C22.6793 31.121 22.7741 31.3187 23.2984 31.3136C25.7645 31.2872 28.2308 31.2872 30.6969 31.3136C31.2263 31.3136 31.3039 31.1124 31.2953 30.6638C31.2729 29.3779 31.2953 28.0852 31.2953 26.8062C31.2953 25.577 31.266 24.3462 31.3091 23.1188C31.316 22.5515 31.1918 22.3297 30.5692 22.3142Z" fill="#A854EE"/>
<path d="M31.2849 39.3227C31.2849 38.0094 31.2745 36.6943 31.2849 35.3792C31.2849 34.9958 31.2055 34.8188 30.7675 34.8222C28.2444 34.8411 25.7215 34.8377 23.1984 34.8222C22.8414 34.8222 22.681 34.9064 22.6982 35.3018C22.8707 38.2724 23.2018 41.2154 23.933 44.1069C24.0124 44.4215 24.1141 44.6003 24.5142 44.5161C26.537 44.1119 28.59 43.8767 30.652 43.813C31.2004 43.7923 31.3039 43.586 31.2901 43.0909C31.2694 41.8395 31.2849 40.5845 31.2849 39.3227Z" fill="#A854EE"/>
<path d="M35.4084 43.8198C37.4458 43.8802 39.4747 44.1102 41.4737 44.5075C41.9428 44.6037 42.0221 44.3613 42.0962 44.0416C42.7188 41.334 43.1982 38.6076 43.2172 35.8175C43.3069 35.5184 43.4259 35.2176 43.1862 34.9288C43.1396 34.8978 43.0948 34.8377 43.0482 34.8377C40.4337 34.8377 37.8193 34.8377 35.2048 34.8136C34.6357 34.8136 34.7289 35.1574 34.7289 35.4926C34.7289 38.0128 34.7478 40.533 34.7202 43.0566C34.7185 43.6015 34.8393 43.7992 35.4084 43.8198Z" fill="#A854EE"/>
<path d="M35.3859 31.3136C37.3071 31.281 39.2283 31.3136 41.1494 31.2964C41.8548 31.2878 42.774 31.6196 43.2103 31.14C43.6053 30.7068 43.2258 29.8284 43.1862 29.1493C43.0371 26.7846 42.6764 24.4379 42.1083 22.1372C42.0393 21.8519 42.029 21.5063 41.5271 21.6095C39.4482 22.0248 37.3379 22.2652 35.2186 22.328C34.772 22.3452 34.7237 22.5532 34.7289 22.9228C34.7461 24.2087 34.7289 25.5015 34.7289 26.7804C34.7289 28.0663 34.7513 29.3591 34.7185 30.6398C34.7082 31.1521 34.841 31.324 35.3859 31.3136Z" fill="#A854EE"/>
<path d="M22.155 16.6018C23.1897 13.9045 24.6315 11.4566 26.6682 9.38166C26.8406 9.33524 27.0407 9.24929 26.8941 9.06535C26.7717 8.91408 26.5837 9.05332 26.4613 9.18397C22.5741 10.279 19.237 12.3024 16.2776 15.1578C17.8022 16.0362 19.3819 16.5897 20.9702 17.1467C21.6324 17.3771 21.9049 17.2567 22.155 16.6018Z" fill="#A854EE"/>
<path d="M44.0312 49.1799C43.8139 49.7988 43.5311 50.3953 43.2586 50.9918C42.2737 53.1321 40.9785 55.1165 39.4146 56.8813C43.3811 55.8654 46.775 53.8678 49.7465 50.9712C48.0719 50.0171 46.3542 49.3999 44.6038 48.8636C44.314 48.7776 44.1399 48.8515 44.0312 49.1799Z" fill="#A854EE"/>
<path d="M25.6386 18.2659C27.3391 18.5237 29.0463 18.7128 30.764 18.8108C31.1848 18.8349 31.2952 18.6991 31.2917 18.2951C31.2745 15.6959 31.2832 13.0949 31.2832 10.4458C30.7158 10.5283 30.3019 10.8463 29.9035 11.1523C27.6891 12.8817 26.3923 15.2506 25.3196 17.7708C25.1816 18.1043 25.3058 18.2143 25.6386 18.2659Z" fill="#A854EE"/>
<path d="M40.4251 47.8769C38.671 47.5979 36.9031 47.4131 35.129 47.3233C34.8375 47.3113 34.7289 47.4144 34.7306 47.7153C34.7392 50.3644 34.7306 53.0135 34.7306 55.6711C35.1359 55.6832 35.3825 55.47 35.636 55.3015C38.1763 53.5979 39.5353 51.0365 40.6976 48.3359C40.8287 48.0436 40.7235 47.9216 40.4251 47.8769Z" fill="#A854EE"/>
<path d="M44.7538 17.2326C46.2828 16.7552 47.7741 16.1651 49.2153 15.4671C49.7499 15.2024 49.6447 15.0425 49.2929 14.7211C47.6367 13.1833 45.777 11.879 43.7656 10.8445C42.3464 10.092 40.8309 9.53566 39.261 9.1908C41.4237 11.4118 42.8827 14.0403 43.9916 16.8716C44.1623 17.3048 44.3537 17.3616 44.7538 17.2326Z" fill="#A854EE"/>
<path d="M26.6131 56.718C24.5332 54.5589 23.095 52.006 22.0171 49.24C21.8636 48.8447 21.6843 48.7707 21.3135 48.8962C19.6217 49.4326 17.9592 50.0342 16.276 50.9797C19.2733 53.8712 22.6483 55.8997 26.6234 57.0068C26.6131 56.8263 26.6389 56.7438 26.6131 56.718Z" fill="#A854EE"/>
<path d="M30.7072 47.3319C29.0464 47.423 27.3977 47.6087 25.7542 47.8477C25.273 47.9181 25.1868 48.0625 25.3782 48.5026C26.0784 50.1048 26.8631 51.6537 27.9565 53.0307C28.8343 54.1343 29.8156 55.1159 31.2866 55.7674C31.2866 53.0307 31.2763 50.4091 31.2866 47.7892C31.2987 47.3096 31.0573 47.313 30.7072 47.3319Z" fill="#A854EE"/>
<path d="M35.2877 18.8021C36.976 18.7127 38.6541 18.5219 40.3269 18.2761C40.8012 18.2056 40.8029 18.0285 40.6442 17.6538C39.825 15.725 38.8455 13.8959 37.4106 12.3401C36.6725 11.5408 35.8671 10.8376 34.7341 10.3804C34.7341 13.1154 34.7427 15.7594 34.7341 18.4033C34.7186 18.8657 34.9945 18.8176 35.2877 18.8021Z" fill="#A854EE"/>
<path d="M9.03282 31.0042C8.98108 31.4133 9.29842 31.2982 9.48813 31.2982C12.5786 31.3062 15.669 31.3062 18.7594 31.2982C18.9612 31.2982 19.2578 31.3927 19.2181 31.0008L19.2285 30.8289C19.2567 30.7484 19.2774 30.6655 19.2906 30.5813C19.4906 27.3821 19.8321 24.2035 20.6237 21.0851C20.6892 20.8324 20.5478 20.7224 20.2667 20.6279C18.5714 20.0554 16.8848 19.4537 15.2844 18.6389C13.8495 17.9083 13.8254 17.9031 12.9597 19.2578C10.9471 22.4071 9.57605 25.7902 9.19492 29.543C8.97935 30.0157 9.02247 30.5108 9.03282 31.0042Z" fill="#A854EE"/>
<path d="M56.9879 35.13C57.0449 34.7174 56.7207 34.8377 56.5344 34.8377C53.4417 34.8286 50.3501 34.8286 47.2597 34.8377C47.0562 34.8377 46.7595 34.7415 46.7992 35.1351C46.7992 35.1919 46.7992 35.2486 46.7906 35.307C46.5164 38.5733 46.2146 41.8395 45.3609 45.0301C45.2109 45.5923 45.6713 45.5046 45.8938 45.5751C47.4474 46.0669 48.9681 46.6566 50.4467 47.3406C51.0227 47.6053 51.6073 48.3118 52.1522 48.0609C52.6696 47.8219 52.9559 47.0621 53.2974 46.5034C55.1668 43.4469 56.4654 40.1841 56.8242 36.5929C57.0415 36.115 56.9983 35.6234 56.9879 35.13Z" fill="#A854EE"/>
</g>
<defs>
<clipPath id="clip0_1_181">
<rect width="48" height="48" fill="white" transform="translate(9 9)"/>
</clipPath>
</defs>
</svg>
